# xmcd
#
# Track frame offsets: 
#        150
#        14882
#        25230
#        36825
#        49672
#        61542
#        71810
#        79647
#        91600
#        102955
#        115207
#        126555
#        141660
#        151092
#        162125
#        175422
#        187990
#        197297
#        212850
#        225127
#        235207
#        243417
#
# Disc length: 3515 seconds
#
# Revision: 0
# Processed by: cddbd v1.5.1PL0 Copyright (c) Steve Scherf et al.
# Submitted via: ExactAudioCopy v0.95b2
#
DISCID=220db916
DTITLE=Various Artist - Country 2
DYEAR=1900
DGENRE=Country
TTITLE0=Glen Campbell - Rhinestone Cowboy
TTITLE1=Johnny Cash - Train Of Love
TTITLE2=George Jones - Windows Up Above
TTITLE3=Jerry Wallace - Shutters And Boards
TTITLE4=Faron Young - I Heard The Jukebox Playing
TTITLE5=Jan Howard - I Wish I Could Fall In Love Again
TTITLE6=Roger Miller - Do Wacka Do
TTITLE7=Webb Pierce - High Geared Daddy
TTITLE8=Carl Belew - Little Miss Heartache
TTITLE9=Johnny Horton - Done Roving
TTITLE10=Patsy Cline - In Care Of The Blues
TTITLE11=T. Texas Tyler - Deck Of Cards
TTITLE12=Jeannie C. Riley - The Girl Most Likely
TTITLE13=Johnny Paycheck - Heartbreak Tennessee
TTITLE14=George Jones - Seasons Of My Heart
TTITLE15=Red Sovine - A Wound Time Can't Erase
TTITLE16=The Maddox Brothers and Rose - Sally Let Your Bangs Hang Down
TTITLE17=Cash McCall - Across The Wide Missouri
TTITLE18=Slim Willer - Don't Let The Star Get In Your Eyes
TTITLE19=Johnny Cash - There You Go
TTITLE20=Roger Miller - Dear Heart
TTITLE21=Glen Campbell - Amazing Grace
EXTD=
EXTT0=
EXTT1=
EXTT2=
EXTT3=
EXTT4=
EXTT5=
EXTT6=
EXTT7=
EXTT8=
EXTT9=
EXTT10=
EXTT11=
EXTT12=
EXTT13=
EXTT14=
EXTT15=
EXTT16=
EXTT17=
EXTT18=
EXTT19=
EXTT20=
EXTT21=
PLAYORDER=
